{
  "accessors": [
    {
      "bufferView": 2,
      "componentType": 5126,
      "count": 65532,
      "max": [
        8.5959930419921875,
        13.967052459716797,
        52.333946228027344
      ],
      "min": [
        -12.446307182312012,
        1.5347490310668945,
        -10.051397323608398
      ],
      "type": "VEC3"
    },
    {
      "bufferView": 2,
      "byteOffset": 786384,
      "componentType": 5126,
      "count": 65532,
      "max": [
        0.99988710880279541,
        0.9982755184173584,
        0.99987930059432983
      ],
      "min": [
        -0.9999883770942688,
        -0.99999868869781494,
        -0.99995702505111694
      ],
      "type": "VEC3"
    },
    {
      "bufferView": 3,
      "componentType": 5126,
      "count": 65532,
      "max": [
        0.93333333730697632,
        0.97254902124404907,
        0.97647058963775635,
        1
      ],
      "min": [
        0,
        0,
        0,
        1
      ],
      "type": "VEC4"
    },
    {
      "bufferView": 1,
      "componentType": 5126,
      "count": 65532,
      "max": [
        0.99884301424026489,
        0.99902200698852539
      ],
      "min": [
        0.0039090001955628395,
        0.0010750000365078449
      ],
      "type": "VEC2"
    },
    {
      "bufferView": 0,
      "componentType": 5125,
      "count": 348597,
      "max": [
        65531
      ],
      "min": [
        0
      ],
      "type": "SCALAR"
    },
    {
      "bufferView": 2,
      "byteOffset": 1572768,
      "componentType": 5126,
      "count": 65532,
      "max": [
        7.3664050102233887,
        13.708382606506348,
        46.151805877685547
      ],
      "min": [
        -12.446307182312012,
        1.5347490310668945,
        -10.051397323608398
      ],
      "type": "VEC3"
    },
    {
      "bufferView": 2,
      "byteOffset": 2359152,
      "componentType": 5126,
      "count": 65532,
      "max": [
        0.99993735551834106,
        0.99687564373016357,
        0.99965214729309082
      ],
      "min": [
        -0.99997693300247192,
        -0.99999970197677612,
        -0.99998313188552856
      ],
      "type": "VEC3"
    },
    {
      "bufferView": 3,
      "byteOffset": 1048512,
      "componentType": 5126,
      "count": 65532,
      "max": [
        0.85490196943283081,
        0.97254902124404907,
        0.97647058963775635,
        1
      ],
      "min": [
        0,
        0,
        0,
        1
      ],
      "type": "VEC4"
    },
    {
      "bufferView": 1,
      "byteOffset": 524256,
      "componentType": 5126,
      "count": 65532,
      "max": [
        0.9999849796295166,
        0.99953299760818481
      ],
      "min": [
        7.5000003562308848e-05,
        0.00099099997896701097
      ],
      "type": "VEC2"
    },
    {
      "bufferView": 0,
      "byteOffset": 1394388,
      "componentType": 5125,
      "count": 317085,
      "max": [
        65531
      ],
      "min": [
        0
      ],
      "type": "SCALAR"
    },
    {
      "bufferView": 2,
      "byteOffset": 3145536,
      "componentType": 5126,
      "count": 65532,
      "max": [
        8.108489990234375,
        15.852877616882324,
        46.199905395507812
      ],
      "min": [
        -10.695066452026367,
        4.8131918907165527,
        -57.294013977050781
      ],
      "type": "VEC3"
    },
    {
      "bufferView": 2,
      "byteOffset": 3931920,
      "componentType": 5126,
      "count": 65532,
      "max": [
        0.99997830390930176,
        0.99945437908172607,
        0.99996405839920044
      ],
      "min": [
        -0.99997413158416748,
        -0.99999719858169556,
        -0.99986284971237183
      ],
      "type": "VEC3"
    },
    {
      "bufferView": 3,
      "byteOffset": 2097024,
      "componentType": 5126,
      "count": 65532,
      "max": [
        0.87058824300765991,
        0.97254902124404907,
        0.94901961088180542,
        1
      ],
      "min": [
        0.027450980618596077,
        0.16862745583057404,
        0.08235294371843338,
        1
      ],
      "type": "VEC4"
    },
    {
      "bufferView": 1,
      "byteOffset": 1048512,
      "componentType": 5126,
      "count": 65532,
      "max": [
        0.99996697902679443,
        0.99982500076293945
      ],
      "min": [
        0.00031400000443682075,
        0.0011409999569877982
      ],
      "type": "VEC2"
    },
    {
      "bufferView": 0,
      "byteOffset": 2662728,
      "componentType": 5125,
      "count": 333102,
      "max": [
        65531
      ],
      "min": [
        0
      ],
      "type": "SCALAR"
    },
    {
      "bufferView": 2,
      "byteOffset": 4718304,
      "componentType": 5126,
      "count": 65532,
      "max": [
        7.8807549476623535,
        16.016262054443359,
        -5.6125922203063965
      ],
      "min": [
        -10.636943817138672,
        4.6118330955505371,
        -57.294013977050781
      ],
      "type": "VEC3"
    },
    {
      "bufferView": 2,
      "byteOffset": 5504688,
      "componentType": 5126,
      "count": 65532,
      "max": [
        0.99993759393692017,
        0.99838489294052124,
        0.99990689754486084
      ],
      "min": [
        -0.99995684623718262,
        -0.99999719858169556,
        -0.99980556964874268
      ],
      "type": "VEC3"
    },
    {
      "bufferView": 3,
      "byteOffset": 3145536,
      "componentType": 5126,
      "count": 65532,
      "max": [
        0.90196079015731812,
        0.98039215803146362,
        0.94901961088180542,
        1
      ],
      "min": [
        0,
        0,
        0,
        1
      ],
      "type": "VEC4"
    },
    {
      "bufferView": 1,
      "byteOffset": 1572768,
      "componentType": 5126,
      "count": 65532,
      "max": [
        0.99991297721862793,
        0.99987900257110596
      ],
      "min": [
        5.7000001106644049e-05,
        5.4000000091036782e-05
      ],
      "type": "VEC2"
    },
    {
      "bufferView": 0,
      "byteOffset": 3995136,
      "componentType": 5125,
      "count": 309732,
      "max": [
        65531
      ],
      "min": [
        0
      ],
      "type": "SCALAR"
    },
    {
      "bufferView": 2,
      "byteOffset": 6291072,
      "componentType": 5126,
      "count": 19370,
      "max": [
        7.2242088317871094,
        14.507840156555176,
        -5.2368302345275879
      ],
      "min": [
        -10.266658782958984,
        9.195429801940918,
        -40.217948913574219
      ],
      "type": "VEC3"
    },
    {
      "bufferView": 2,
      "byteOffset": 6523512,
      "componentType": 5126,
      "count": 19370,
      "max": [
        0.99993759393692017,
        0.97892773151397705,
        0.99962848424911499
      ],
      "min": [
        -0.99913370609283447,
        -0.99997830390930176,
        -0.99980616569519043
      ],
      "type": "VEC3"
    },
    {
      "bufferView": 3,
      "byteOffset": 4194048,
      "componentType": 5126,
      "count": 19370,
      "max": [
        0.84313726425170898,
        0.9529411792755127,
        0.92156863212585449,
        1
      ],
      "min": [
        0,
        0,
        0,
        1
      ],
      "type": "VEC4"
    },
    {
      "bufferView": 1,
      "byteOffset": 2097024,
      "componentType": 5126,
      "count": 19370,
      "max": [
        0.99013501405715942,
        0.97660201787948608
      ],
      "min": [
        0.018512999638915062,
        0.0032770000398159027
      ],
      "type": "VEC2"
    },
    {
      "bufferView": 0,
      "byteOffset": 5234064,
      "componentType": 5125,
      "count": 87369,
      "max": [
        19369
      ],
      "min": [
        0
      ],
      "type": "SCALAR"
    }
  ],
  "asset": {
    "extras": {
      "author": "KyeAdams (https://sketchfab.com/KyeAdams)",
      "license": "CC-BY-4.0 (http://creativecommons.org/licenses/by/4.0/)",
      "source": "https://sketchfab.com/3d-models/15fps-2f5bb1e3fd824d65a2d090a1f78f3d9a",
      "title": "15fps"
    },
    "generator": "Sketchfab-8.72.3",
    "version": "2.0"
  },
  "bufferViews": [
    {
      "buffer": 0,
      "byteLength": 5583540,
      "byteOffset": 0,
      "name": "floatBufferViews",
      "target": 34963
    },
    {
      "buffer": 0,
      "byteLength": 2251984,
      "byteOffset": 5583540,
      "byteStride": 8,
      "name": "floatBufferViews",
      "target": 34962
    },
    {
      "buffer": 0,
      "byteLength": 6755952,
      "byteOffset": 7835524,
      "byteStride": 12,
      "name": "floatBufferViews",
      "target": 34962
    },
    {
      "buffer": 0,
      "byteLength": 4503968,
      "byteOffset": 14591476,
      "byteStride": 16,
      "name": "floatBufferViews",
      "target": 34962
    }
  ],
  "buffers": [
    {
      "byteLength": 19095444,
      "uri": "scene.bin"
    }
  ],
  "extensionsUsed": [
    "KHR_materials_unlit"
  ],
  "images": [
    {
      "uri": "textures/15fps_baseColor.jpeg"
    }
  ],
  "materials": [
    {
      "doubleSided": false,
      "emissiveFactor": [
        0,
        0,
        0
      ],
      "extensions": {
        "KHR_materials_unlit": {}
      },
      "name": "15fps",
      "pbrMetallicRoughness": {
        "baseColorFactor": [
          1,
          1,
          1,
          1
        ],
        "baseColorTexture": {
          "index": 0,
          "texCoord": 0
        },
        "metallicFactor": 0,
        "roughnessFactor": 1
      }
    }
  ],
  "meshes": [
    {
      "primitives": [
        {
          "attributes": {
            "COLOR_0": 2,
            "NORMAL": 1,
            "POSITION": 0,
            "TEXCOORD_0": 3
          },
          "indices": 4,
          "material": 0,
          "mode": 4
        }
      ]
    },
    {
      "primitives": [
        {
          "attributes": {
            "COLOR_0": 7,
            "NORMAL": 6,
            "POSITION": 5,
            "TEXCOORD_0": 8
          },
          "indices": 9,
          "material": 0,
          "mode": 4
        }
      ]
    },
    {
      "primitives": [
        {
          "attributes": {
            "COLOR_0": 12,
            "NORMAL": 11,
            "POSITION": 10,
            "TEXCOORD_0": 13
          },
          "indices": 14,
          "material": 0,
          "mode": 4
        }
      ]
    },
    {
      "primitives": [
        {
          "attributes": {
            "COLOR_0": 17,
            "NORMAL": 16,
            "POSITION": 15,
            "TEXCOORD_0": 18
          },
          "indices": 19,
          "material": 0,
          "mode": 4
        }
      ]
    },
    {
      "primitives": [
        {
          "attributes": {
            "COLOR_0": 22,
            "NORMAL": 21,
            "POSITION": 20,
            "TEXCOORD_0": 23
          },
          "indices": 24,
          "material": 0,
          "mode": 4
        }
      ]
    }
  ],
  "nodes": [
    {
      "children": [
        1
      ],
      "name": "RootNode (gltf orientation matrix)",
      "rotation": [
        -0.70710678118654746,
        -0,
        -0,
        0.70710678118654757
      ]
    },
    {
      "children": [
        2
      ],
      "matrix": [
        -0.39868643425160144,
        -1.3578379528061293e-16,
        -0.085146085900662527,
        0,
        0.085146085900662527,
        -4.5261265093537642e-17,
        -0.39868643425160144,
        0,
        1.074955045971519e-16,
        -0.40767723321914673,
        1.8104506037415057e-16,
        0,
        -5.6406517028808594,
        6.2954397201538086,
        5.6998281478881836,
        1
      ],
      "name": "RootNode (model correction matrix)"
    },
    {
      "children": [
        3,
        4,
        5,
        6,
        7
      ],
      "name": "15fps.obj.cleaner.materialmerger.gles"
    },
    {
      "mesh": 0,
      "name": ""
    },
    {
      "mesh": 1,
      "name": ""
    },
    {
      "mesh": 2,
      "name": ""
    },
    {
      "mesh": 3,
      "name": ""
    },
    {
      "mesh": 4,
      "name": ""
    }
  ],
  "samplers": [
    {
      "magFilter": 9729,
      "minFilter": 9987,
      "wrapS": 10497,
      "wrapT": 10497
    }
  ],
  "scene": 0,
  "scenes": [
    {
      "name": "OSG_Scene",
      "nodes": [
        0
      ]
    }
  ],
  "textures": [
    {
      "sampler": 0,
      "source": 0
    }
  ]
}

