{
  "accessors": [
    {
      "bufferView": 2,
      "componentType": 5126,
      "count": 65532,
      "max": [
        8.8603973388671875,
        12.522418022155762,
        -4.6397132873535156
      ],
      "min": [
        -5.3607878684997559,
        -49.174182891845703,
        -9.1423978805541992
      ],
      "type": "VEC3"
    },
    {
      "bufferView": 2,
      "byteOffset": 786384,
      "componentType": 5126,
      "count": 65532,
      "max": [
        0.99820250272750854,
        0.99980366230010986,
        0.99999892711639404
      ],
      "min": [
        -0.99998080730438232,
        -0.99996393918991089,
        -0.99853396415710449
      ],
      "type": "VEC3"
    },
    {
      "bufferView": 3,
      "componentType": 5126,
      "count": 65532,
      "max": [
        1,
        1,
        1,
        0
      ],
      "min": [
        1,
        1,
        1,
        0
      ],
      "type": "VEC4"
    },
    {
      "bufferView": 1,
      "componentType": 5126,
      "count": 65532,
      "max": [
        0.90575635433197021,
        0.99049043655395508
      ],
      "min": [
        0.0042375661432743073,
        0.0013766768388450146
      ],
      "type": "VEC2"
    },
    {
      "bufferView": 0,
      "componentType": 5125,
      "count": 358674,
      "max": [
        65531
      ],
      "min": [
        0
      ],
      "type": "SCALAR"
    },
    {
      "bufferView": 2,
      "byteOffset": 1572768,
      "componentType": 5126,
      "count": 65532,
      "max": [
        7.4851016998291016,
        12.645659446716309,
        -3.5641708374023438
      ],
      "min": [
        -11.10391902923584,
        -49.554439544677734,
        -8.6579208374023438
      ],
      "type": "VEC3"
    },
    {
      "bufferView": 2,
      "byteOffset": 2359152,
      "componentType": 5126,
      "count": 65532,
      "max": [
        0.99996638298034668,
        0.99998801946640015,
        0.99999922513961792
      ],
      "min": [
        -0.99987113475799561,
        -0.99994415044784546,
        -0.9949420690536499
      ],
      "type": "VEC3"
    },
    {
      "bufferView": 3,
      "byteOffset": 1048512,
      "componentType": 5126,
      "count": 65532,
      "max": [
        1,
        1,
        1,
        0
      ],
      "min": [
        0,
        0,
        0,
        0
      ],
      "type": "VEC4"
    },
    {
      "bufferView": 1,
      "byteOffset": 524256,
      "componentType": 5126,
      "count": 65532,
      "max": [
        0.9978175163269043,
        0.99977266788482666
      ],
      "min": [
        0.0029564728029072285,
        0.005199936218559742
      ],
      "type": "VEC2"
    },
    {
      "bufferView": 0,
      "byteOffset": 1434696,
      "componentType": 5125,
      "count": 356499,
      "max": [
        65531
      ],
      "min": [
        0
      ],
      "type": "SCALAR"
    },
    {
      "bufferView": 2,
      "byteOffset": 3145536,
      "componentType": 5126,
      "count": 65533,
      "max": [
        7.3313040733337402,
        11.487000465393066,
        -5.7760515213012695
      ],
      "min": [
        -8.3441219329833984,
        -18.360288619995117,
        -8.6861562728881836
      ],
      "type": "VEC3"
    },
    {
      "bufferView": 2,
      "byteOffset": 3931932,
      "componentType": 5126,
      "count": 65533,
      "max": [
        0.99945861101150513,
        0.99992114305496216,
        0.9999922513961792
      ],
      "min": [
        -0.99976390600204468,
        -0.9999050498008728,
        -0.99996262788772583
      ],
      "type": "VEC3"
    },
    {
      "bufferView": 3,
      "byteOffset": 2097024,
      "componentType": 5126,
      "count": 65533,
      "max": [
        1,
        1,
        1,
        0
      ],
      "min": [
        0,
        0,
        0,
        0
      ],
      "type": "VEC4"
    },
    {
      "bufferView": 1,
      "byteOffset": 1048512,
      "componentType": 5126,
      "count": 65533,
      "max": [
        0.99794387817382812,
        0.9997444748878479
      ],
      "min": [
        0.0012885963078588247,
        5.9628859162330627e-05
      ],
      "type": "VEC2"
    },
    {
      "bufferView": 0,
      "byteOffset": 2860692,
      "componentType": 5125,
      "count": 348627,
      "max": [
        65532
      ],
      "min": [
        0
      ],
      "type": "SCALAR"
    },
    {
      "bufferView": 2,
      "byteOffset": 4718328,
      "componentType": 5126,
      "count": 65532,
      "max": [
        6.6881880760192871,
        2.4994373321533203,
        -5.4410595893859863
      ],
      "min": [
        -11.0963134765625,
        -24.984029769897461,
        -9.0675182342529297
      ],
      "type": "VEC3"
    },
    {
      "bufferView": 2,
      "byteOffset": 5504712,
      "componentType": 5126,
      "count": 65532,
      "max": [
        0.99996912479400635,
        0.99961268901824951,
        0.99999743700027466
      ],
      "min": [
        -0.99984091520309448,
        -0.99981784820556641,
        -0.99730348587036133
      ],
      "type": "VEC3"
    },
    {
      "bufferView": 3,
      "byteOffset": 3145552,
      "componentType": 5126,
      "count": 65532,
      "max": [
        1,
        1,
        1,
        0
      ],
      "min": [
        1,
        1,
        1,
        0
      ],
      "type": "VEC4"
    },
    {
      "bufferView": 1,
      "byteOffset": 1572776,
      "componentType": 5126,
      "count": 65532,
      "max": [
        0.99705636501312256,
        0.99998807907104492
      ],
      "min": [
        0.0013557819183915854,
        0.0044099176302552223
      ],
      "type": "VEC2"
    },
    {
      "bufferView": 0,
      "byteOffset": 4255200,
      "componentType": 5125,
      "count": 334407,
      "max": [
        65531
      ],
      "min": [
        0
      ],
      "type": "SCALAR"
    },
    {
      "bufferView": 2,
      "byteOffset": 6291096,
      "componentType": 5126,
      "count": 65532,
      "max": [
        1.5791761875152588,
        -15.651767730712891,
        -4.2830600738525391
      ],
      "min": [
        -11.140850067138672,
        -29.488134384155273,
        -8.689661979675293
      ],
      "type": "VEC3"
    },
    {
      "bufferView": 2,
      "byteOffset": 7077480,
      "componentType": 5126,
      "count": 65532,
      "max": [
        0.99998337030410767,
        0.99992460012435913,
        1
      ],
      "min": [
        -0.99995183944702148,
        -0.9999956488609314,
        -0.99754935503005981
      ],
      "type": "VEC3"
    },
    {
      "bufferView": 3,
      "byteOffset": 4194064,
      "componentType": 5126,
      "count": 65532,
      "max": [
        1,
        1,
        1,
        0
      ],
      "min": [
        0,
        0,
        0,
        0
      ],
      "type": "VEC4"
    },
    {
      "bufferView": 1,
      "byteOffset": 2097032,
      "componentType": 5126,
      "count": 65532,
      "max": [
        0.99783593416213989,
        0.99998587369918823
      ],
      "min": [
        0.00033482702565379441,
        0.0062095257453620434
      ],
      "type": "VEC2"
    },
    {
      "bufferView": 0,
      "byteOffset": 5592828,
      "componentType": 5125,
      "count": 340194,
      "max": [
        65531
      ],
      "min": [
        0
      ],
      "type": "SCALAR"
    },
    {
      "bufferView": 2,
      "byteOffset": 7863864,
      "componentType": 5126,
      "count": 65532,
      "max": [
        4.577852725982666,
        -16.144004821777344,
        -4.0842442512512207
      ],
      "min": [
        -5.7009286880493164,
        -37.2642822265625,
        -8.8494834899902344
      ],
      "type": "VEC3"
    },
    {
      "bufferView": 2,
      "byteOffset": 8650248,
      "componentType": 5126,
      "count": 65532,
      "max": [
        0.99993699789047241,
        0.99997478723526001,
        0.99999886751174927
      ],
      "min": [
        -0.99998819828033447,
        -0.99986624717712402,
        -0.99998235702514648
      ],
      "type": "VEC3"
    },
    {
      "bufferView": 3,
      "byteOffset": 5242576,
      "componentType": 5126,
      "count": 65532,
      "max": [
        1,
        1,
        1,
        0
      ],
      "min": [
        0,
        0,
        0,
        0
      ],
      "type": "VEC4"
    },
    {
      "bufferView": 1,
      "byteOffset": 2621288,
      "componentType": 5126,
      "count": 65532,
      "max": [
        0.99777626991271973,
        0.99994802474975586
      ],
      "min": [
        0.00033971114316955209,
        0.00016739248530939221
      ],
      "type": "VEC2"
    },
    {
      "bufferView": 0,
      "byteOffset": 6953604,
      "componentType": 5125,
      "count": 335823,
      "max": [
        65531
      ],
      "min": [
        0
      ],
      "type": "SCALAR"
    },
    {
      "bufferView": 2,
      "byteOffset": 9436632,
      "componentType": 5126,
      "count": 65532,
      "max": [
        4.0702767372131348,
        -25.413642883300781,
        -3.1274631023406982
      ],
      "min": [
        -11.309175491333008,
        -43.465118408203125,
        -7.7748031616210938
      ],
      "type": "VEC3"
    },
    {
      "bufferView": 2,
      "byteOffset": 10223016,
      "componentType": 5126,
      "count": 65532,
      "max": [
        0.99993997812271118,
        0.9999881386756897,
        0.99999290704727173
      ],
      "min": [
        -0.99996435642242432,
        -0.9998476505279541,
        -0.99899917840957642
      ],
      "type": "VEC3"
    },
    {
      "bufferView": 3,
      "byteOffset": 6291088,
      "componentType": 5126,
      "count": 65532,
      "max": [
        1,
        1,
        1,
        0
      ],
      "min": [
        1,
        1,
        1,
        0
      ],
      "type": "VEC4"
    },
    {
      "bufferView": 1,
      "byteOffset": 3145544,
      "componentType": 5126,
      "count": 65532,
      "max": [
        0.99783343076705933,
        0.99990159273147583
      ],
      "min": [
        0.00034635208430700004,
        0.0010455489391461015
      ],
      "type": "VEC2"
    },
    {
      "bufferView": 0,
      "byteOffset": 8296896,
      "componentType": 5125,
      "count": 339918,
      "max": [
        65531
      ],
      "min": [
        0
      ],
      "type": "SCALAR"
    },
    {
      "bufferView": 2,
      "byteOffset": 11009400,
      "componentType": 5126,
      "count": 52613,
      "max": [
        3.5758779048919678,
        2.8626129627227783,
        -2.6614875793457031
      ],
      "min": [
        -10.506295204162598,
        -44.268146514892578,
        -8.2509927749633789
      ],
      "type": "VEC3"
    },
    {
      "bufferView": 2,
      "byteOffset": 11640756,
      "componentType": 5126,
      "count": 52613,
      "max": [
        0.99977982044219971,
        1,
        0.99998277425765991
      ],
      "min": [
        -0.99949949979782104,
        -1,
        -0.99995583295822144
      ],
      "type": "VEC3"
    },
    {
      "bufferView": 3,
      "byteOffset": 7339600,
      "componentType": 5126,
      "count": 52613,
      "max": [
        1,
        1,
        1,
        0
      ],
      "min": [
        0,
        0,
        0,
        0
      ],
      "type": "VEC4"
    },
    {
      "bufferView": 1,
      "byteOffset": 3669800,
      "componentType": 5126,
      "count": 52613,
      "max": [
        0.99800652265548706,
        0.99993652105331421
      ],
      "min": [
        0.00033728295238688588,
        6.2083709053695202e-05
      ],
      "type": "VEC2"
    },
    {
      "bufferView": 0,
      "byteOffset": 9656568,
      "componentType": 5125,
      "count": 243720,
      "max": [
        52612
      ],
      "min": [
        0
      ],
      "type": "SCALAR"
    }
  ],
  "asset": {
    "extras": {
      "author": "KyeAdams (https://sketchfab.com/KyeAdams)",
      "license": "CC-BY-4.0 (http://creativecommons.org/licenses/by/4.0/)",
      "source": "https://sketchfab.com/3d-models/coral-for-web-90efdd45a1bf4443a041a32cf3920f45",
      "title": "Coral for web"
    },
    "generator": "Sketchfab-8.72.3",
    "version": "2.0"
  },
  "bufferViews": [
    {
      "buffer": 0,
      "byteLength": 10631448,
      "byteOffset": 0,
      "name": "floatBufferViews",
      "target": 34963
    },
    {
      "buffer": 0,
      "byteLength": 4090704,
      "byteOffset": 10631448,
      "byteStride": 8,
      "name": "floatBufferViews",
      "target": 34962
    },
    {
      "buffer": 0,
      "byteLength": 12272112,
      "byteOffset": 14722152,
      "byteStride": 12,
      "name": "floatBufferViews",
      "target": 34962
    },
    {
      "buffer": 0,
      "byteLength": 8181408,
      "byteOffset": 26994264,
      "byteStride": 16,
      "name": "floatBufferViews",
      "target": 34962
    }
  ],
  "buffers": [
    {
      "byteLength": 35175672,
      "uri": "scene.bin"
    }
  ],
  "extensionsUsed": [
    "KHR_materials_unlit"
  ],
  "images": [
    {
      "uri": "textures/material_0_baseColor.jpeg"
    }
  ],
  "materials": [
    {
      "doubleSided": false,
      "emissiveFactor": [
        0,
        0,
        0
      ],
      "extensions": {
        "KHR_materials_unlit": {}
      },
      "name": "material_0",
      "pbrMetallicRoughness": {
        "baseColorFactor": [
          1,
          1,
          1,
          1
        ],
        "baseColorTexture": {
          "index": 0,
          "texCoord": 0
        },
        "metallicFactor": 0,
        "roughnessFactor": 1
      }
    }
  ],
  "meshes": [
    {
      "primitives": [
        {
          "attributes": {
            "COLOR_0": 2,
            "NORMAL": 1,
            "POSITION": 0,
            "TEXCOORD_0": 3
          },
          "indices": 4,
          "material": 0,
          "mode": 4
        }
      ]
    },
    {
      "primitives": [
        {
          "attributes": {
            "COLOR_0": 7,
            "NORMAL": 6,
            "POSITION": 5,
            "TEXCOORD_0": 8
          },
          "indices": 9,
          "material": 0,
          "mode": 4
        }
      ]
    },
    {
      "primitives": [
        {
          "attributes": {
            "COLOR_0": 12,
            "NORMAL": 11,
            "POSITION": 10,
            "TEXCOORD_0": 13
          },
          "indices": 14,
          "material": 0,
          "mode": 4
        }
      ]
    },
    {
      "primitives": [
        {
          "attributes": {
            "COLOR_0": 17,
            "NORMAL": 16,
            "POSITION": 15,
            "TEXCOORD_0": 18
          },
          "indices": 19,
          "material": 0,
          "mode": 4
        }
      ]
    },
    {
      "primitives": [
        {
          "attributes": {
            "COLOR_0": 22,
            "NORMAL": 21,
            "POSITION": 20,
            "TEXCOORD_0": 23
          },
          "indices": 24,
          "material": 0,
          "mode": 4
        }
      ]
    },
    {
      "primitives": [
        {
          "attributes": {
            "COLOR_0": 27,
            "NORMAL": 26,
            "POSITION": 25,
            "TEXCOORD_0": 28
          },
          "indices": 29,
          "material": 0,
          "mode": 4
        }
      ]
    },
    {
      "primitives": [
        {
          "attributes": {
            "COLOR_0": 32,
            "NORMAL": 31,
            "POSITION": 30,
            "TEXCOORD_0": 33
          },
          "indices": 34,
          "material": 0,
          "mode": 4
        }
      ]
    },
    {
      "primitives": [
        {
          "attributes": {
            "COLOR_0": 37,
            "NORMAL": 36,
            "POSITION": 35,
            "TEXCOORD_0": 38
          },
          "indices": 39,
          "material": 0,
          "mode": 4
        }
      ]
    }
  ],
  "nodes": [
    {
      "children": [
        1
      ],
      "name": "RootNode (gltf orientation matrix)",
      "rotation": [
        -0.70710678118654746,
        -0,
        -0,
        0.70710678118654757
      ]
    },
    {
      "children": [
        2
      ],
      "matrix": [
        -0.22094004186336935,
        0.0011228810048844601,
        -2.934159748922186e-16,
        0,
        0.0011228810048844601,
        0.22094004186336935,
        3.9448553010386206e-16,
        0,
        2.9541705598598158e-16,
        3.9298925172367867e-16,
        -0.2209428995847702,
        0,
        -2.4787964820861816,
        0.006298938300460577,
        -36.908439636230469,
        1
      ],
      "name": "RootNode (model correction matrix)"
    },
    {
      "children": [
        3
      ],
      "name": "root"
    },
    {
      "children": [
        4
      ],
      "matrix": [
        1,
        0,
        0,
        0,
        0,
        2.2204460492503131e-16,
        1,
        0,
        0,
        -1,
        2.2204460492503131e-16,
        0,
        0,
        0,
        0,
        1
      ],
      "name": "GLTF_SceneRootNode"
    },
    {
      "children": [
        5,
        6,
        7,
        8,
        9,
        10,
        11,
        12
      ],
      "name": "_0"
    },
    {
      "mesh": 0,
      "name": ""
    },
    {
      "mesh": 1,
      "name": ""
    },
    {
      "mesh": 2,
      "name": ""
    },
    {
      "mesh": 3,
      "name": ""
    },
    {
      "mesh": 4,
      "name": ""
    },
    {
      "mesh": 5,
      "name": ""
    },
    {
      "mesh": 6,
      "name": ""
    },
    {
      "mesh": 7,
      "name": ""
    }
  ],
  "samplers": [
    {
      "magFilter": 9729,
      "minFilter": 9987,
      "wrapS": 10497,
      "wrapT": 10497
    }
  ],
  "scene": 0,
  "scenes": [
    {
      "name": "OSG_Scene",
      "nodes": [
        0
      ]
    }
  ],
  "textures": [
    {
      "sampler": 0,
      "source": 0
    }
  ]
}

